<?xml version="1.0" encoding="UTF-8" standalone="no"?>
<svg
   viewBox="0 0 596 146"
   role="img"
   aria-label="Orange fruit next to the word UNI"
   version="1.1"
   id="svg55"
   sodipodi:docname="logo.svg"
   width="596"
   height="146"
   inkscape:version="1.1.2 (0a00cf5339, 2022-02-04)"
   xmlns:inkscape="http://www.inkscape.org/namespaces/inkscape"
   xmlns:sodipodi="http://sodipodi.sourceforge.net/DTD/sodipodi-0.dtd"
   xmlns="http://www.w3.org/2000/svg"
   xmlns:svg="http://www.w3.org/2000/svg">
  <sodipodi:namedview
     id="namedview57"
     pagecolor="#ffffff"
     bordercolor="#666666"
     borderopacity="1.0"
     inkscape:pageshadow="2"
     inkscape:pageopacity="0.0"
     inkscape:pagecheckerboard="0"
     showgrid="false"
     inkscape:zoom="3.4023437"
     inkscape:cx="625.30425"
     inkscape:cy="177.08381"
     inkscape:window-width="1569"
     inkscape:window-height="1082"
     inkscape:window-x="3254"
     inkscape:window-y="235"
     inkscape:window-maximized="0"
     inkscape:current-layer="text2824" />
  <defs
     id="defs19">
    <rect
       x="303.45941"
       y="123.79681"
       width="201.76529"
       height="71.252228"
       id="rect2826" />
    <radialGradient
       id="orangeSkin"
       cx="214"
       cy="217"
       r="227.49998"
       fx="214"
       fy="217"
       gradientUnits="userSpaceOnUse">
      <stop
         offset="0%"
         stop-color="#ffcc66"
         id="stop2" />
      <stop
         offset="55%"
         stop-color="#ff9f1c"
         id="stop4" />
      <stop
         offset="100%"
         stop-color="#e66a00"
         id="stop6" />
    </radialGradient>
    <radialGradient
       id="highlight"
       cx="155.48158"
       cy="216.12978"
       r="35.678566"
       gradientTransform="scale(1.1435437,0.87447463)"
       fx="155.48158"
       fy="216.12978"
       gradientUnits="userSpaceOnUse">
      <stop
         offset="0%"
         stop-color="#fff6d5"
         stop-opacity="0.9"
         id="stop9" />
      <stop
         offset="100%"
         stop-color="#fff6d5"
         stop-opacity="0"
         id="stop11" />
    </radialGradient>
    <linearGradient
       id="leaf"
       x1="171.14354"
       y1="109.86486"
       x2="270.56375"
       y2="209.28508"
       gradientTransform="scale(1.5449217,0.647282)"
       gradientUnits="userSpaceOnUse">
      <stop
         offset="0%"
         stop-color="#4caf50"
         id="stop14" />
      <stop
         offset="100%"
         stop-color="#1b7f3a"
         id="stop16" />
    </linearGradient>
  </defs>
  <circle
     style="fill:#f57b07;fill-opacity:1;stroke:none;stroke-width:0.941883"
     id="path39302"
     cx="73.33667"
     cy="72.96096"
     r="72.364174" />
  <!-- Orange -->
  <!-- Text -->
  <g
     aria-label="Orange
University"
     transform="matrix(2.8044947,0,0,2.8044947,-688.88092,-357.71489)"
     id="text2824"
     style="font-weight:bold;font-size:40.4921px;line-height:0.75;font-family:'EB Garamond 12 All SC';-inkscape-font-specification:'EB Garamond 12 All SC Bold';white-space:pre;shape-inside:url(#rect2826);fill:#881329">
    <path
       d="m 311.60364,141.88188 c 0,4.10738 3.31138,7.38691 7.54613,7.38691 5.22179,0 7.9282,-3.59793 7.9282,-7.51428 0,-4.33027 -3.69346,-7.48244 -7.9282,-7.48244 -4.07555,0 -7.54613,3.69346 -7.54613,7.60981 z m 7.35509,-6.59093 c 3.82082,0 5.44467,3.53427 5.44467,6.75013 0,2.51537 -1.08256,6.04963 -4.74419,6.04963 -3.5661,0 -5.34915,-2.96114 -5.34915,-6.68644 0,-3.02481 1.08257,-6.11332 4.64867,-6.11332 z"
       id="path39440"
       style="stroke-width:0.786331" />
    <path
       d="m 333.7644,142.7734 c 0,-0.28656 0.0955,-0.4776 0.3184,-0.44576 0.41392,0.0318 1.11441,0.19104 1.75121,0.4776 0.44576,0.22288 0.70049,0.4776 0.95521,0.85969 1.49648,2.45169 1.75121,3.05665 2.80193,4.3621 0.79601,0.95521 2.26066,1.20992 3.53426,1.20992 0.54129,0 1.27361,-0.28656 1.56018,-0.4776 0.19104,-0.12736 0.28655,-0.6368 0.0637,-0.6368 -1.05073,-0.0318 -1.49649,0.25472 -2.38802,-0.6368 -2.00593,-1.94225 -2.57905,-3.50242 -3.94818,-5.57204 -0.0955,-0.12736 -0.0955,-0.1592 0,-0.19104 0.28656,-0.12736 0.82785,-0.4776 1.27361,-0.92336 0.35024,-0.3184 1.11441,-1.68753 1.11441,-2.67458 0,-2.38801 -2.32433,-3.75714 -5.5402,-3.75714 -1.2736,0 -1.84673,0.19104 -2.67457,0.19104 -1.14625,0 -1.97409,-0.0955 -2.89746,-0.0955 -0.3184,0 -0.1592,0.73233 0.0318,0.796 0.85969,0.22289 0.92337,0.25473 1.36913,0.73233 0.22288,0.25472 0.28656,0.98704 0.28656,1.59201 v 8.50132 c 0,0.54129 -0.25472,0.92338 -0.6368,1.30545 -0.47761,0.44577 -0.79601,0.57313 -1.43281,0.73233 -0.19104,0.0637 -0.19104,0.796 0,0.796 0.60496,0 2.16513,-0.19104 3.5661,-0.19104 1.17808,0 2.61089,0.19104 3.05666,0.19104 0.22287,0 0.19104,-0.85968 0,-0.92336 -1.40097,-0.35024 -2.03778,-0.89153 -2.06962,-1.78305 -0.0318,-1.17808 -0.0637,-2.16513 -0.0955,-3.43874 z m 0,-2.19698 c -0.0318,-1.7512 0.0319,-2.48353 0.0955,-4.07554 0.0319,-0.66864 0.19104,-1.20993 1.40097,-1.20993 2.48353,0 2.86561,1.62385 2.86561,2.86562 0,1.30545 -0.25471,2.13329 -0.98704,2.57906 -0.57312,0.38208 -1.01889,0.6368 -2.32434,0.6368 -0.66864,0 -1.01888,0.0637 -1.05072,-0.79601 z"
       id="path39442"
       style="stroke-width:0.786331" />
    <path
       d="m 346.2386,148.88671 c 0.85969,0 1.36913,-0.1592 2.26065,-0.1592 1.20993,0 1.87857,0.1592 3.15218,0.1592 0.28656,0 0.28656,-0.70048 0,-0.76416 -0.41392,-0.0955 -0.98705,-0.41392 -1.33729,-0.9552 -0.12736,-0.22289 -0.12736,-0.63681 -0.0318,-1.05073 0.0955,-0.54129 0.12736,-0.38209 0.50944,-1.36913 0.12736,-0.28656 0.1592,-0.38208 0.38208,-0.38208 h 4.5213 c 0.44576,0 0.54129,0.0318 0.60497,0.22288 0.3184,0.85968 0.28656,0.57312 0.44576,1.36913 0.0955,0.41392 0.19105,0.89153 -0.0637,1.30544 -0.31841,0.54129 -0.76417,0.76417 -1.27361,0.85969 -0.19105,0.0319 -0.35025,0.76416 -0.0318,0.76416 1.05072,0 2.00593,-0.1592 3.31138,-0.1592 1.20992,0 1.84672,0.1592 3.05665,0.1592 0.38209,0 0.22289,-0.70048 0,-0.76416 -0.54128,-0.12736 -1.05072,-0.50944 -1.4328,-0.92336 -0.57313,-0.60497 -0.85969,-1.08257 -1.11441,-1.8149 -1.49649,-3.98002 -2.4517,-6.87747 -3.98003,-11.04854 -0.0637,-0.19104 -0.0955,-0.28656 -0.22287,-0.28656 -0.0955,0 -0.19104,0.1592 -0.44577,0.44576 -0.19104,0.22289 -1.14625,0.92336 -1.43281,0.98705 -0.0318,0.0318 -0.0955,0.6368 -0.1592,1.01888 -0.0955,0.35025 -0.1592,0.6368 -0.22288,0.82785 -1.52833,3.7253 -2.16513,5.28547 -3.69346,8.53317 -0.28656,0.60496 -0.50944,0.9552 -0.98705,1.33729 -0.6368,0.50944 -1.14624,0.70047 -1.81489,0.92336 -0.19104,0.0637 -0.25472,0.76416 0,0.76416 z m 7.41876,-10.82566 c 0.19104,-0.4776 0.19104,-0.4776 0.38209,0 0.35024,0.98705 1.52833,4.26659 1.7512,5.12627 0.0955,0.3184 0.0637,0.3184 -0.25472,0.3184 h -3.7253 c -0.38208,0 -0.54128,-0.0318 -0.41392,-0.3184 0.70048,-1.52833 1.71936,-3.78898 2.26065,-5.12627 z"
       id="path39444"
       style="stroke-width:0.786331" />
    <path
       d="m 363.74352,148.88671 c 0.92337,0 1.43282,-0.12736 2.38802,-0.12736 0.92336,0 1.33729,0.12736 2.41985,0.12736 0.38209,0 0.31841,-0.73232 0.0955,-0.76416 -0.66865,-0.12736 -0.79601,-0.22289 -1.11441,-0.60496 -0.28657,-0.3184 -0.3184,-0.63681 -0.35024,-1.05073 -0.0637,-1.97409 0.0637,-6.30436 0.12736,-8.2466 0.0319,-0.28657 0.1592,-0.60497 0.796,0.0955 3.47058,3.94818 5.31731,6.11332 8.53317,10.0615 0.25472,0.28656 0.85969,0.85968 1.59201,0.85968 0.44576,0 0.796,-0.38207 0.796,-0.85968 0,-4.64867 -0.12736,-7.16404 0.15921,-11.74903 0,-0.38208 0.41392,-0.73232 0.60496,-0.85969 0.19104,-0.1592 0.4776,-0.41391 1.11441,-0.50944 0.22288,0 0.12735,-0.70048 0,-0.70048 -0.95521,0 -1.62385,0.12736 -2.64274,0.12736 -1.1144,0 -1.65569,-0.12736 -2.80193,-0.12736 -0.1592,0 -0.12736,0.66865 0,0.70048 0.41391,0.1592 2.16513,0.50944 2.19697,1.49649 0.12736,3.5661 0.22288,5.22179 0.0955,8.53317 -0.0318,0.85969 -0.44576,0.19104 -0.57312,0 -3.50242,-3.8845 -5.22179,-6.30435 -8.59686,-10.31622 -0.19104,-0.19104 -0.25471,-0.4776 -0.50944,-0.4776 -1.62385,0 -2.86561,0.0637 -4.58498,0 -0.28656,0 -0.28656,0.76416 0,0.76416 0.35024,0.0319 1.36913,0.0955 2.03777,0.89153 0.25472,0.3184 0.19104,0.50944 0.19104,1.14625 0,3.59794 -0.0319,5.44466 -0.22288,8.91525 -0.0318,0.54128 -0.0955,0.98705 -0.4776,1.40097 -0.38209,0.41392 -0.70049,0.41392 -1.27362,0.50944 -0.19103,0.0319 -0.3184,0.76416 0,0.76416 z"
       id="path39446"
       style="stroke-width:0.786331" />
    <path
       d="m 390.36188,148.02703 c -3.34322,0 -5.34915,-3.37506 -5.34915,-6.8138 0,-3.31138 2.32434,-5.79492 5.44467,-5.85859 2.10145,-0.0318 2.99298,0.60496 3.27954,0.92336 0.35024,0.44577 0.57313,1.01889 0.73233,1.46465 0.0955,0.25472 0.50944,0.60496 0.9552,0.60496 0.19104,0 0.35024,-0.22288 0.35024,-0.44576 0,-0.57312 -0.19104,-1.56017 -0.41393,-2.48354 -0.0955,-0.38207 -0.41391,-0.4776 -0.796,-0.6368 -0.98704,-0.3184 -2.00593,-0.44576 -3.62978,-0.44576 -4.42578,0 -8.59684,3.08849 -8.59684,7.38692 0,4.26659 3.72529,7.45061 7.99188,7.45061 0.82785,0 1.87857,-0.1592 3.05665,-0.50945 1.01889,-0.28656 1.56018,-0.60496 2.51538,-1.1144 0.1592,-0.0955 0.3184,-0.28657 0.3184,-0.41393 0,-0.0955 -0.22288,-0.19104 -0.28656,-0.35024 -0.0955,-0.0955 -0.12736,-0.19104 -0.12736,-0.35024 -0.0319,-0.85969 0,-1.36913 0.0955,-2.26065 0.0637,-0.57313 0.60496,-0.85969 1.24177,-1.05073 0.1592,-0.0637 0.22288,-0.50944 0.22288,-0.85969 0,-0.12736 -0.1592,-0.19104 -0.28656,-0.19104 -0.796,0 -1.52833,0.0637 -2.48354,0.0637 -1.20993,0 -2.03777,-0.0955 -3.31137,-0.0955 -0.0955,0 -0.0955,0.1592 -0.0955,0.25473 0.0637,0.3184 0.22288,0.82784 0.44577,0.82784 0.44576,0 1.71936,0.19104 2.13329,0.66864 0.19104,0.25472 0.0637,1.08257 0.0637,1.75121 0,0.76417 -0.12735,1.43281 -0.66864,1.78305 -0.38208,0.22288 -1.68753,0.70048 -2.80194,0.70048 z"
       id="path39448"
       style="stroke-width:0.786331" />
    <path
       d="m 406.02725,141.91371 c 0.35024,0.0637 0.82784,0.19104 1.01889,0.85969 0.0637,0.12736 0.22288,0.60496 0.57312,0.60496 0.19104,0 0.22288,-0.19104 0.19104,-0.38208 -0.0637,-1.1144 -0.0955,-2.10145 0,-3.21586 0.0319,-0.19104 -0.1592,-0.35024 -0.28656,-0.35024 -0.0955,0 -0.38208,0.3184 -0.44576,0.41392 -0.0955,0.28656 -0.19104,0.38208 -0.38209,0.57312 -0.25471,0.22289 -0.60496,0.31841 -0.9552,0.31841 h -2.77009 c -0.19105,0 -0.22289,-0.25472 -0.22289,-0.47761 0,-1.08256 0.0319,-1.20992 0.0637,-2.26065 0.0319,-0.60496 0.1592,-1.49649 0.19104,-1.68753 0.0319,-0.28656 0.28656,-0.57312 0.54128,-0.57312 h 3.37507 c 0.54127,0 0.9552,0.12736 1.33728,0.57312 0.22288,0.22288 0.47761,0.73233 0.63681,1.20993 0.0637,0.1592 0.0955,0.22288 0.25471,0.22288 0.12737,0 0.35025,-0.0637 0.35025,-0.19104 0,-0.76417 -0.19105,-2.10146 -0.35025,-2.9293 -0.0318,-0.1592 -0.25471,-0.19104 -0.38208,-0.19104 -0.57312,-0.0318 -4.58498,0.0955 -7.48244,0.0955 -1.01888,0.0318 -1.65569,-0.0637 -2.57905,-0.0637 -0.28656,0 -0.19105,0.6368 0,0.66864 0.85968,0.25472 0.9552,0.22288 1.36913,0.70048 0.25471,0.25473 0.28655,0.98705 0.28655,1.59201 v 8.85158 c 0,0.54127 -0.22288,0.85967 -0.60496,1.17808 -0.4776,0.44576 -0.73232,0.47761 -1.43281,0.66864 -0.19104,0.0318 -0.1592,0.76417 0,0.76417 0,0 2.32433,-0.19104 3.4069,-0.19104 2.16514,0 4.71235,0.1592 7.73717,0.1592 0.22288,0 0.25472,-0.19105 0.28656,-0.38209 0.19104,-0.70048 0.44576,-1.87856 0.54128,-2.73825 0,-0.1592 -0.1592,-0.22288 -0.28656,-0.25473 -0.22288,0 -0.38208,0.0318 -0.4776,0.22289 -0.1592,0.35024 -0.6368,1.14625 -1.01889,1.46465 -0.28656,0.22288 -1.4328,0.38208 -1.52833,0.38208 h -2.80193 c -0.95521,0 -1.33729,-0.73233 -1.36913,-1.62385 -0.0318,-1.24177 -0.0637,-2.16513 -0.0637,-3.50242 0,-0.38208 0.22289,-0.4776 0.54129,-0.54128 1.05072,-0.1592 1.84673,-0.0955 2.73825,0.0319 z"
       id="path39450"
       style="stroke-width:0.786331" />
    <path
       d="m 312.04941,166.17593 c 0,3.78899 2.38801,6.90933 6.8138,6.90933 4.61683,0 5.76307,-3.66162 5.76307,-7.32324 0,-1.97409 0.1592,-4.33027 0.22289,-5.03075 0.0637,-1.17809 0.85968,-1.52834 1.84672,-1.75121 0.15921,-0.0319 0.25473,-0.70049 0,-0.70049 -1.01888,0 -1.59201,0.0318 -2.57905,0.0318 h -2.29249 c -0.35025,0 -0.3184,0.73231 -0.0318,0.82784 1.05073,0.25472 1.46465,0.44576 1.43281,2.38801 v 4.99891 c 0,3.91635 -1.2736,5.44467 -3.94818,5.44467 -2.92929,0 -4.83971,-2.41985 -4.83971,-5.18995 0,-1.11441 -0.0637,-3.82082 0,-5.73123 0.0319,-1.24177 0.35024,-1.81489 1.27361,-1.94225 0.25472,-0.0637 0.25472,-0.76417 0,-0.76417 -1.24177,0 -1.36913,0.0637 -2.19697,0.0637 -1.08257,0 -1.75122,-0.0637 -2.7701,-0.0637 -0.3184,0 -0.19104,0.73233 0.0637,0.79601 0.73232,0.22288 1.24176,0.3184 1.24176,1.68753 z"
       id="path39452"
       style="stroke-width:0.786331" />
    <path
       d="m 329.5615,172.76686 c 0.92337,0 1.43281,-0.12736 2.38801,-0.12736 0.92337,0 1.33729,0.12736 2.41986,0.12736 0.38208,0 0.3184,-0.73233 0.0955,-0.76417 -0.66864,-0.12736 -0.796,-0.22288 -1.1144,-0.60496 -0.28657,-0.3184 -0.31841,-0.6368 -0.35025,-1.05073 -0.0637,-1.97409 0.0637,-6.30436 0.12736,-8.2466 0.0319,-0.28656 0.1592,-0.60497 0.796,0.0955 3.47058,3.94819 5.31731,6.11332 8.53318,10.06151 0.25472,0.28655 0.85968,0.85968 1.592,0.85968 0.44577,0 0.79601,-0.38208 0.79601,-0.85968 0,-4.64867 -0.12736,-7.16405 0.1592,-11.74904 0,-0.38207 0.41392,-0.73232 0.60496,-0.85968 0.19105,-0.1592 0.47761,-0.41392 1.11441,-0.50944 0.22288,0 0.12736,-0.70049 0,-0.70049 -0.95521,0 -1.62385,0.12736 -2.64274,0.12736 -1.1144,0 -1.65569,-0.12736 -2.80193,-0.12736 -0.1592,0 -0.12736,0.66865 0,0.70049 0.41392,0.1592 2.16513,0.50944 2.19697,1.49649 0.12736,3.56609 0.22288,5.22178 0.0955,8.53316 -0.0318,0.85969 -0.44576,0.19104 -0.57312,0 -3.50242,-3.88449 -5.22179,-6.30435 -8.59685,-10.31622 -0.19104,-0.19103 -0.25472,-0.4776 -0.50944,-0.4776 -1.62386,0 -2.86562,0.0637 -4.58499,0 -0.28656,0 -0.28656,0.76417 0,0.76417 0.35024,0.0318 1.36913,0.0955 2.03777,0.89152 0.25472,0.3184 0.19105,0.50944 0.19105,1.14625 0,3.59794 -0.0319,5.44467 -0.22289,8.91525 -0.0318,0.54129 -0.0955,0.98705 -0.4776,1.40097 -0.38209,0.41392 -0.70049,0.41392 -1.27361,0.50944 -0.19104,0.0318 -0.3184,0.76417 0,0.76417 z"
       id="path39454"
       style="stroke-width:0.786331" />
    <path
       d="m 353.98288,160.66759 c 0,-0.38208 0.19104,-0.66865 0.44576,-0.85969 0.44576,-0.41392 0.92337,-0.57312 1.46465,-0.79601 0.22288,-0.0955 0.28657,-0.73232 0,-0.73232 -1.30545,0 -1.84673,0.0637 -3.02482,0.0637 -1.27361,0 -1.81489,-0.0637 -3.18401,-0.0637 -0.19105,0 -0.22289,0.63681 0,0.73232 0.54128,0.22289 0.92336,0.38209 1.40096,0.76417 0.28657,0.28656 0.50944,0.4776 0.50944,0.89153 v 9.39285 c 0,0.4776 -0.0637,0.85969 -0.41391,1.17809 -0.57313,0.50944 -1.05073,0.6368 -1.71938,0.76416 -0.38208,0.0955 -0.25472,0.76417 0,0.76417 1.20993,0 2.06962,-0.1592 3.4069,-0.1592 1.24177,0 1.9741,0.1592 3.2477,0.1592 0.38209,0 0.38209,-0.66864 0,-0.76417 -0.66864,-0.12736 -1.17809,-0.25472 -1.68753,-0.76416 -0.38208,-0.3184 -0.44576,-0.70049 -0.44576,-1.17809 z"
       id="path39456"
       style="stroke-width:0.786331" />
    <path
       d="m 366.2095,173.14894 c 0.3184,0 0.82785,-1.68753 0.98705,-2.10145 1.52832,-3.59794 2.80193,-6.20884 4.13922,-9.32918 0.3184,-0.76416 0.54128,-1.49649 1.24176,-2.22881 0.41393,-0.44577 0.85969,-0.44577 1.46466,-0.60497 0.12736,-0.0318 0.22287,-0.60496 0,-0.60496 -0.95521,0 -1.49649,0.0637 -2.4517,0.0637 h -2.57905 c -0.28657,0 -0.3184,0.60497 -0.0319,0.66864 0.70048,0.1592 1.08257,0.38209 1.30544,0.95521 0.22289,0.66864 -0.12736,1.27361 -0.3184,1.71937 -1.17809,2.83378 -1.65569,4.10738 -2.77009,6.6546 -0.35024,0.796 -0.3184,0.76416 -0.66865,0 -0.9552,-2.10145 -2.03777,-4.33027 -2.57905,-6.39987 -0.15921,-0.70049 -0.44577,-1.52834 -0.44577,-2.1333 0,-0.60497 0.44577,-0.79601 1.30545,-0.89152 0.25473,-0.0637 0.22289,-0.63681 0,-0.63681 -1.17809,0 -2.32433,0.0637 -3.78898,0.0637 -0.89153,0 -1.24177,-0.0637 -2.22881,-0.0637 -0.28656,0 -0.15921,0.57312 0.0637,0.66865 0.70048,0.19103 1.2736,0.44576 1.65569,0.85968 0.3184,0.35024 0.73232,1.20992 0.9552,1.75121 1.56017,3.82082 2.16513,5.47651 3.59794,8.94709 0.41393,1.05073 0.95521,2.64273 1.14625,2.64273 z"
       id="path39458"
       style="stroke-width:0.786331" />
    <path
       d="m 382.98924,165.79386 c 0.35024,0.0637 0.82784,0.19104 1.01889,0.85968 0.0637,0.12736 0.22287,0.60497 0.57311,0.60497 0.19105,0 0.22289,-0.19105 0.19105,-0.38209 -0.0637,-1.1144 -0.0955,-2.10145 0,-3.21586 0.0319,-0.19103 -0.15921,-0.35024 -0.28656,-0.35024 -0.0955,0 -0.38209,0.31841 -0.44577,0.41392 -0.0955,0.28656 -0.19104,0.38209 -0.38208,0.57313 -0.25472,0.22288 -0.60497,0.3184 -0.9552,0.3184 h -2.7701 c -0.19105,0 -0.22288,-0.25473 -0.22288,-0.4776 0,-1.08257 0.0318,-1.20993 0.0637,-2.26066 0.0318,-0.60496 0.1592,-1.49649 0.19104,-1.68753 0.0318,-0.28656 0.28656,-0.57312 0.54128,-0.57312 h 3.37506 c 0.54128,0 0.9552,0.12736 1.33728,0.57312 0.22289,0.22288 0.47761,0.73233 0.63681,1.20993 0.0637,0.1592 0.0955,0.22288 0.25472,0.22288 0.12736,0 0.35025,-0.0637 0.35025,-0.19104 0,-0.76416 -0.19105,-2.10145 -0.35025,-2.9293 -0.0319,-0.1592 -0.25472,-0.19103 -0.38208,-0.19103 -0.57312,-0.0318 -4.58498,0.0955 -7.48245,0.0955 -1.01888,0.0319 -1.65568,-0.0637 -2.57905,-0.0637 -0.28656,0 -0.19104,0.6368 0,0.66864 0.85969,0.25472 0.95521,0.22288 1.36913,0.70049 0.25472,0.25472 0.28656,0.98704 0.28656,1.592 v 8.85158 c 0,0.54128 -0.22288,0.85968 -0.60497,1.17808 -0.4776,0.44576 -0.73231,0.47761 -1.4328,0.66865 -0.19104,0.0318 -0.1592,0.76416 0,0.76416 0,0 2.32433,-0.19104 3.4069,-0.19104 2.16513,0 4.71235,0.1592 7.73716,0.1592 0.22289,0 0.25472,-0.19104 0.28656,-0.38208 0.19105,-0.70048 0.44577,-1.87857 0.54129,-2.73826 0,-0.1592 -0.1592,-0.22288 -0.28656,-0.25472 -0.22288,0 -0.38208,0.0318 -0.4776,0.22288 -0.15921,0.35024 -0.63681,1.14625 -1.01889,1.46465 -0.28657,0.22288 -1.43281,0.38208 -1.52833,0.38208 h -2.80193 c -0.95521,0 -1.33729,-0.73232 -1.36913,-1.62385 -0.0319,-1.24177 -0.0637,-2.16513 -0.0637,-3.50242 0,-0.38208 0.22288,-0.4776 0.54128,-0.54128 1.05073,-0.1592 1.84673,-0.0955 2.73826,0.0318 z"
       id="path39460"
       style="stroke-width:0.786331" />
    <path
       d="m 393.20993,166.65354 c 0,-0.28656 0.0955,-0.47761 0.3184,-0.44576 0.41391,0.0318 1.1144,0.19104 1.7512,0.4776 0.44577,0.22288 0.70049,0.4776 0.95521,0.85968 1.49649,2.4517 1.75121,3.05667 2.80194,4.36211 0.796,0.95521 2.26065,1.20993 3.53425,1.20993 0.54129,0 1.27362,-0.28657 1.56018,-0.4776 0.19104,-0.12737 0.28655,-0.63681 0.0637,-0.63681 -1.05072,-0.0318 -1.49649,0.25473 -2.38801,-0.6368 -2.00593,-1.94225 -2.57906,-3.50242 -3.94819,-5.57203 -0.0955,-0.12737 -0.0955,-0.1592 0,-0.19104 0.28657,-0.12736 0.82785,-0.4776 1.27362,-0.92337 0.35024,-0.31841 1.1144,-1.68753 1.1144,-2.67458 0,-2.38801 -2.32433,-3.75714 -5.5402,-3.75714 -1.2736,0 -1.84673,0.19104 -2.67457,0.19104 -1.14625,0 -1.97409,-0.0955 -2.89745,-0.0955 -0.3184,0 -0.1592,0.73233 0.0318,0.79601 0.85969,0.22288 0.92337,0.25472 1.36913,0.73232 0.22288,0.25473 0.28656,0.98704 0.28656,1.59201 v 8.50133 c 0,0.54128 -0.25472,0.92337 -0.6368,1.30545 -0.47761,0.44576 -0.79601,0.57312 -1.43281,0.73232 -0.19104,0.0637 -0.19104,0.79601 0,0.79601 0.60496,0 2.16513,-0.19104 3.5661,-0.19104 1.17808,0 2.6109,0.19104 3.05666,0.19104 0.22288,0 0.19104,-0.85969 0,-0.92337 -1.40097,-0.35024 -2.03778,-0.89153 -2.06961,-1.78305 -0.0319,-1.17808 -0.0637,-2.16513 -0.0955,-3.43874 z m 0,-2.19697 c -0.0319,-1.75121 0.0318,-2.48353 0.0955,-4.07555 0.0319,-0.66864 0.19104,-1.20992 1.40097,-1.20992 2.48354,0 2.86562,1.62385 2.86562,2.86561 0,1.30545 -0.25472,2.13329 -0.98705,2.57906 -0.57312,0.38208 -1.01888,0.6368 -2.32434,0.6368 -0.66864,0 -1.01888,0.0637 -1.05071,-0.796 z"
       id="path39462"
       style="stroke-width:0.786331" />
    <path
       d="m 411.00855,171.90717 c -2.51537,0 -3.53425,-3.0885 -3.78898,-3.0885 -0.25472,0 -0.6368,0.1592 -0.6368,0.35024 0.0319,0.79601 0.4776,2.51538 0.73233,3.02482 0.0637,0.0955 0,0.19104 0.35024,0.25473 0.796,0.1592 1.71936,0.57312 3.43874,0.57312 3.59793,0 5.06258,-2.41985 5.06258,-4.17107 0,-2.22881 -2.26065,-3.82082 -3.50241,-4.61682 -1.17809,-0.76416 -2.99298,-1.75121 -2.99298,-3.15218 0,-1.20993 0.70048,-1.87858 2.19697,-1.87858 0.79601,0 2.35617,0.25473 2.9293,2.26066 0.0637,0.3184 0.6368,0.54128 0.76416,0.54128 0.12736,0 0.25473,-0.35024 0.25473,-0.54128 0,-0.76417 -0.19105,-1.59201 -0.35025,-2.35617 -0.0319,-0.19104 -0.19104,-0.41393 -0.41392,-0.4776 -0.47761,-0.0637 -1.36913,-0.54129 -2.89745,-0.54129 -3.27955,0 -4.83971,2.41985 -4.83971,3.75714 0,1.75121 1.36912,3.31138 3.02481,4.36211 1.87857,1.20993 3.15218,1.87857 3.15218,3.31138 0,1.33728 -0.50944,2.38801 -2.48354,2.38801 z"
       id="path39464"
       style="stroke-width:0.786331" />
    <path
       d="m 423.96748,160.66759 c 0,-0.38208 0.19105,-0.66865 0.44577,-0.85969 0.44576,-0.41392 0.92336,-0.57312 1.46465,-0.79601 0.22288,-0.0955 0.28656,-0.73232 0,-0.73232 -1.30545,0 -1.84673,0.0637 -3.02482,0.0637 -1.2736,0 -1.81489,-0.0637 -3.18402,-0.0637 -0.19104,0 -0.22288,0.63681 0,0.73232 0.54129,0.22289 0.92337,0.38209 1.40097,0.76417 0.28656,0.28656 0.50945,0.4776 0.50945,0.89153 v 9.39285 c 0,0.4776 -0.0637,0.85969 -0.41393,1.17809 -0.57312,0.50944 -1.05073,0.6368 -1.71937,0.76416 -0.38208,0.0955 -0.25472,0.76417 0,0.76417 1.20993,0 2.06961,-0.1592 3.4069,-0.1592 1.24177,0 1.97409,0.1592 3.2477,0.1592 0.38208,0 0.38208,-0.66864 0,-0.76417 -0.66865,-0.12736 -1.17809,-0.25472 -1.68753,-0.76416 -0.38208,-0.3184 -0.44577,-0.70049 -0.44577,-1.17809 z"
       id="path39466"
       style="stroke-width:0.786331" />
    <path
       d="m 439.69653,159.74422 c 1.40096,0 1.36913,0.60496 1.49649,1.14625 0.0637,0.19104 0.25471,0.70048 0.50944,0.73232 0.25472,0.0318 0.35024,-0.3184 0.38208,-0.60497 0.0955,-0.9552 0.22288,-2.388 0.54128,-2.99297 0.0955,-0.19104 -0.12736,-0.38208 -0.22287,-0.38208 -0.12737,0 -0.50945,0.12736 -0.76417,0.38208 -0.35025,0.41392 -0.95521,0.41392 -1.62385,0.41392 h -8.62869 c -0.57313,0 -1.24177,-0.12735 -1.40097,-0.44576 -0.12736,-0.22288 -0.4776,-0.66864 -0.60496,-0.66864 -0.0955,0 -0.35025,0 -0.41393,0.4776 -0.12736,0.92336 -0.12736,2.06961 -0.54128,2.89745 -0.12736,0.28657 -0.28656,0.82785 0.0637,0.82785 0.3184,0 0.89153,-0.6368 1.01889,-0.89152 0.3184,-0.54129 0.92336,-0.89153 1.592,-0.89153 1.36913,0 1.78306,-0.0319 2.35618,0.0637 0.35024,0.0637 0.38208,0.57313 0.38208,0.95521 v 9.32917 c 0,0.47761 -0.0955,0.82785 -0.41392,1.11442 -0.54128,0.50944 -0.98705,0.6368 -1.65569,0.76416 -0.35024,0.0955 -0.25472,0.796 0,0.796 1.17808,0 1.91041,-0.22288 3.18402,-0.22288 1.30544,0 2.10145,0.22288 3.34322,0.22288 0.3184,0 0.35024,-0.70048 0,-0.796 -0.66865,-0.12736 -1.14625,-0.25472 -1.65569,-0.76416 -0.35025,-0.28657 -0.41392,-0.63681 -0.41392,-1.11442 v -9.32917 c 0,-0.41392 0.0637,-0.92336 0.35024,-0.95521 0.38208,-0.0318 2.00592,-0.0637 3.12034,-0.0637 z"
       id="path39468"
       style="stroke-width:0.786331" />
    <path
       d="m 444.21778,159.10742 c 1.27361,0.0637 2.16513,1.62385 2.54722,2.13329 1.14624,1.59201 1.52833,2.22882 2.48353,3.94818 0.0955,0.19104 0.38208,0.4776 0.38208,1.33729 v 3.53426 c 0,0.44576 -0.0955,0.82785 -0.41392,1.1144 -0.54129,0.50945 -1.01889,0.63681 -1.68753,0.76417 -0.38208,0.0955 -0.25472,0.85969 0,0.85969 1.17808,0 2.06961,-0.19104 3.4069,-0.19104 1.20993,0 1.91041,0.19104 3.15218,0.19104 0.35024,0 0.38208,-0.76417 0,-0.85969 -0.66865,-0.12736 -1.14625,-0.25472 -1.65569,-0.76417 -0.35024,-0.28655 -0.41393,-0.66864 -0.41393,-1.1144 -0.0318,-0.9552 0.0319,-2.48353 0,-3.53426 -0.0318,-0.82785 0.0319,-0.73232 0.60497,-1.68753 1.08256,-1.81489 1.40096,-1.97409 2.41985,-3.66162 0.44576,-0.66865 1.43281,-2.03777 2.70642,-2.22881 0.1592,-0.0318 0.25472,-0.66865 0,-0.66865 -0.98705,0 -1.36913,0.0318 -2.35618,0.0318 h -2.29249 c -0.3184,0 -0.3184,0.73231 -0.0637,0.76416 0.82784,0.12735 1.52832,0.66864 1.14624,1.4328 -0.54128,1.05073 -1.36913,2.26066 -2.10145,3.27955 -0.76416,1.01888 -0.44576,1.08256 -1.17809,0 -0.85968,-1.27362 -1.08256,-1.40098 -2.22881,-3.37507 -0.4776,-0.85968 -0.0637,-1.24176 0.85969,-1.36913 0.22287,-0.0318 0.22287,-0.70048 0,-0.70048 -1.24177,0 -1.68753,0.0637 -2.73826,0.0637 -1.05073,0 -1.65569,-0.0637 -2.67458,-0.0637 -0.3184,0 -0.1592,0.73233 0.0955,0.76417 z"
       id="path39470"
       style="stroke-width:0.786331" />
  </g>
</svg>
