<svg xmlns="http://www.w3.org/2000/svg" width="512" height="512" viewBox="0 0 512 512">
  <defs>
    <radialGradient id="b" cx="35%" cy="30%" r="70%">
      <stop offset="0%" stop-color="#ffd56a"/>
      <stop offset="65%" stop-color="#ffb22c"/>
      <stop offset="100%" stop-color="#f28c00"/>
    </radialGradient>
    <radialGradient id="c" cx="40%" cy="35%" r="75%">
      <stop offset="0%" stop-color="#fff3b0"/>
      <stop offset="45%" stop-color="#ffe27a"/>
      <stop offset="100%" stop-color="#ffb000"/>
    </radialGradient>
  </defs>

  <g>
    <circle cx="170" cy="240" r="110" fill="url(#b)" stroke="#d97706" stroke-width="8"/>
    <ellipse cx="135" cy="195" rx="28" ry="16" transform="rotate(-25 135 195)" fill="#ffffff" fill-opacity="0.2"/>
    <path fill="#3f9b3a" d="M170 118c10-20 32-34 58-35-15 14-18 34-14 49-16-4-32-9-44-14"/>
    <path fill="none" stroke="#2f6f2c" stroke-linecap="round" stroke-width="5" d="M181 126c4-15 13-28 27-38"/>
  </g>

  <g>
    <circle cx="320" cy="275" r="128" fill="#ffcc5c" stroke="#d97706" stroke-width="10"/>
    <circle cx="320" cy="275" r="108" fill="url(#c)" stroke="#fff1c4" stroke-width="6"/>
    <circle cx="320" cy="275" r="16" fill="#fff7dc"/>
    <path stroke="#fff7dc" stroke-linecap="round" stroke-width="8" d="M320 275V167m0 108 54-94m-54 94 94-54m-94 54h108m-108 0 94 54m-94-54 54 94m-54-94v108m0-108-54 94m54-94-94 54m94-54H212m108 0-94-54m94 54-54-94"/>
    <circle cx="320" cy="275" r="121" fill="none" stroke="#ffdf8f" stroke-dasharray="2 10" stroke-linecap="round" stroke-width="4"/>
  </g>
</svg>
